# xmcd
#
# Track frame offsets: 
#        150
#        17253
#        32211
#        45686
#        62360
#        79896
#        96233
#        112129
#        130572
#        145003
#        163521
#        179386
#        197908
#        216067
#        232947
#        250187
#        269763
#        286547
#        299877
#        317715
#
# Disc length: 4443 seconds
#
# Revision: 0
# Processed by: cddbd v1.5.2PL0 Copyright (c) Steve Scherf et al.
# Submitted via: ExactAudioCopy v0.99pb1
#
DISCID=21115914
DTITLE=Bosson - You
DYEAR=2006
DGENRE=Pop
TTITLE0=01.You
TTITLE1=02.Never Never Never
TTITLE2=03.Efharisto
TTITLE3=04.We Live
TTITLE4=05.A Little More Time
TTITLE5=06.You Opened My Eyes (radio mix)
TTITLE6=07.All Because Of You
TTITLE7=08.Baby Don't Cry
TTITLE8=09.I Believe (Up-Tempo version)
TTITLE9=10.Run Away With You
TTITLE10=11.I Need Love
TTITLE11=12.Say You Will
TTITLE12=13.Where Are You
TTITLE13=14.Is It Love
TTITLE14=15.Love Has Got The Power
TTITLE15=16.Beautiful
TTITLE16=17.I Don't Wanna Say Goodbye
TTITLE17=18.Hole In My Heart
TTITLE18=19.This Our Life
TTITLE19=20.One In A Million (remix)
EXTD=
EXTT0=
EXTT1=
EXTT2=
EXTT3=
EXTT4=
EXTT5=
EXTT6=
EXTT7=
EXTT8=
EXTT9=
EXTT10=
EXTT11=
EXTT12=
EXTT13=
EXTT14=
EXTT15=
EXTT16=
EXTT17=
EXTT18=
EXTT19=
PLAYORDER=
